<!DOCTYPE svg PUBLIC "-//W3C//DTD SVG 1.1//EN" "http://www.w3.org/Graphics/SVG/1.1/DTD/svg11.dtd">
<svg height="800px" width="800px" version="1.1" id="_x32_" xmlns="http://www.w3.org/2000/svg" xmlns:xlink="http://www.w3.org/1999/xlink" viewBox="0 0 512 512" xml:space="preserve" fill="#fd05a0">
  <g id="bgCarrier" stroke-width="0"/>
  <g id="tracerCarrier" stroke-linecap="round" stroke-linejoin="round"/>
  <g id="iconCarrier">
    <style type="text/css"> .st0{fill:#fd05a0;}</style>
    <g>
      <path class="st0" d="M430.762,126.907c-42.384-89.329-67.753-89.329-78.722-89.329c-1.947,0-3.884,0.167-5.785,0.482 c-18.1,3.014-41.374,22.031-69.302,56.579h-20.955h-20.974c-27.909-34.548-51.202-53.566-69.301-56.579 c-1.891-0.315-3.829-0.482-5.758-0.482h-0.25c-11.108,0-36.412,0.649-78.499,89.329C34.188,164.608-32.49,256.506,18.091,366.094 c49.996,108.328,191.425,108.328,237.907,108.328c46.472,0,187.911,0,237.907-108.318 C544.495,256.506,477.809,164.608,430.762,126.907z M468.055,354.161c-41.15,89.134-161.411,91.776-212.056,91.776 c-50.626,0-170.906-2.642-212.038-91.776c-56.969-123.432,60.121-208.886,60.121-208.886s36.551-79.213,55.875-79.213l1.094,0.093 c18.99,3.162,60.14,56.969,60.14,56.969h34.808h34.808c0,0,41.15-53.807,60.14-56.969l1.094-0.093 c19.305,0,55.875,79.213,55.875,79.213S525.024,230.729,468.055,354.161z"/>
      <path class="st0" d="M146.011,241.809c0,13.983,11.349,25.323,25.332,25.323c13.982,0,25.313-11.34,25.313-25.323 c0-13.983-11.331-25.322-25.313-25.322C157.36,216.487,146.011,227.826,146.011,241.809z"/>
      <ellipse class="st0" cx="171.343" cy="241.809" rx="6" ry="25" style="fill:#081e28"/>
      <path class="st0" d="M340.663,267.132c13.982,0,25.323-11.34,25.323-25.323c0-13.983-11.341-25.322-25.323-25.322 c-13.983,0-25.322,11.34-25.322,25.322C315.341,255.792,326.68,267.132,340.663,267.132z"/>
      <ellipse class="st0" cx="340.663" cy="241.809" rx="6" ry="25" style="fill:#081e28"/>
    </g>
  </g>
</svg>